<mxfile host="app.diagrams.net" modified="2020-09-19T12:25:10.334Z" agent="5.0 (Windows NT 10.0; Win64; x64) AppleWebKit/537.36 (KHTML, like Gecko) Chrome/85.0.4183.102 Safari/537.36" etag="E9oOQEWD0xXOrXMahGz6" version="13.7.3" type="github">
  <diagram id="fL2O_WwHvzDCB2yGwAZq" name="Page-1">
    <mxGraphModel dx="3274" dy="1319" grid="1" gridSize="10" guides="1" tooltips="1" connect="1" arrows="1" fold="1" page="1" pageScale="1" pageWidth="850" pageHeight="1100" math="0" shadow="0">
      <root>
        <mxCell id="0" />
        <mxCell id="1" parent="0" />
        <mxCell id="cez7zL90ysY5yHw-lxMB-1" value="&lt;font size=&quot;3&quot;&gt;UI DESIGN SPACE&lt;/font&gt;" style="rounded=0;whiteSpace=wrap;html=1;fillColor=#ffe6cc;strokeColor=#d79b00;" vertex="1" parent="1">
          <mxGeometry x="-850" width="850" height="560" as="geometry" />
        </mxCell>
      </root>
    </mxGraphModel>
  </diagram>
</mxfile>
